# xmcd
#
# Track frame offsets: 
#        150
#        22012
#        37087
#        58037
#        81982
#        99130
#        119815
#        146987
#        167390
#        189710
#        212065
#        240781
#        256362
#
# Disc length: 3642 seconds
#
# Revision: 0
# Processed by: cddbd v1.5.2PL0 Copyright (c) Steve Scherf et al.
# Submitted via: ExactAudioCopy v0.95b4
#
DISCID=b70e380d
DTITLE=Greg Brown - The Evening Call 
DYEAR=2006
DGENRE=Country
TTITLE0=Joy Tears
TTITLE1=Evening Call
TTITLE2=Cold and Dark and Wet 
TTITLE3=Bucket 
TTITLE4=Mighty Sweet Watermelon 
TTITLE5=Treat Each Other Right 
TTITLE6=Eugene
TTITLE7=Coneville Slough 
TTITLE8=Kokomo
TTITLE9=Pound It On Down 
TTITLE10=Skinny Days
TTITLE11=Whippoorwill
TTITLE12=Pledging My Time
EXTD=
EXTT0=
EXTT1=
EXTT2=
EXTT3=
EXTT4=
EXTT5=
EXTT6=
EXTT7=
EXTT8=
EXTT9=
EXTT10=
EXTT11=
EXTT12=
PLAYORDER=
